# xmcd CD database file
#
# Track frame offsets:
#	150
#	19435
#	41460
#	57938
#	83684
#	104356
#	135122
#	160927
#
# Disc length: 2428 seconds
#
# Revision: 0
# Processed by: cddbd v1.5.1PL0 Copyright (c) Steve Scherf et al.
# Submitted via: CDex 1.60beta1
#
DISCID=5a097a08
DTITLE=White Rabbit Record - Heaven's Drive
DYEAR=1900
DGENRE=未分類 (日本)
TTITLE0=メグメル
TTITLE1=汐
TTITLE2=は〜りぃすたーふぃっしゅ
TTITLE3=彼女の本気
TTITLE4=町、時の流れ、人
TTITLE5=潮鳴り
TTITLE6=Etude pour les petites supercordes
TTITLE7=小さなてのひら
EXTD=
EXTT0=
EXTT1=
EXTT2=
EXTT3=
EXTT4=
EXTT5=
EXTT6=
EXTT7=
PLAYORDER=
